<svg width="32" height="32" viewBox="0 0 32 32" fill="none" xmlns="http://www.w3.org/2000/svg">
<path d="M0 29C0 30.6562 1.53571 32 3.42857 32H28.5714C30.4643 32 32 30.6562 32 29V12H0V29ZM22.8571 16.75C22.8571 16.3375 23.2429 16 23.7143 16H26.5714C27.0429 16 27.4286 16.3375 27.4286 16.75V19.25C27.4286 19.6625 27.0429 20 26.5714 20H23.7143C23.2429 20 22.8571 19.6625 22.8571 19.25V16.75ZM22.8571 24.75C22.8571 24.3375 23.2429 24 23.7143 24H26.5714C27.0429 24 27.4286 24.3375 27.4286 24.75V27.25C27.4286 27.6625 27.0429 28 26.5714 28H23.7143C23.2429 28 22.8571 27.6625 22.8571 27.25V24.75ZM13.7143 16.75C13.7143 16.3375 14.1 16 14.5714 16H17.4286C17.9 16 18.2857 16.3375 18.2857 16.75V19.25C18.2857 19.6625 17.9 20 17.4286 20H14.5714C14.1 20 13.7143 19.6625 13.7143 19.25V16.75ZM13.7143 24.75C13.7143 24.3375 14.1 24 14.5714 24H17.4286C17.9 24 18.2857 24.3375 18.2857 24.75V27.25C18.2857 27.6625 17.9 28 17.4286 28H14.5714C14.1 28 13.7143 27.6625 13.7143 27.25V24.75ZM4.57143 16.75C4.57143 16.3375 4.95714 16 5.42857 16H8.28572C8.75714 16 9.14286 16.3375 9.14286 16.75V19.25C9.14286 19.6625 8.75714 20 8.28572 20H5.42857C4.95714 20 4.57143 19.6625 4.57143 19.25V16.75ZM4.57143 24.75C4.57143 24.3375 4.95714 24 5.42857 24H8.28572C8.75714 24 9.14286 24.3375 9.14286 24.75V27.25C9.14286 27.6625 8.75714 28 8.28572 28H5.42857C4.95714 28 4.57143 27.6625 4.57143 27.25V24.75ZM28.5714 4H25.1429V1C25.1429 0.45 24.6286 0 24 0H21.7143C21.0857 0 20.5714 0.45 20.5714 1V4H11.4286V1C11.4286 0.45 10.9143 0 10.2857 0H8C7.37143 0 6.85714 0.45 6.85714 1V4H3.42857C1.53571 4 0 5.34375 0 7V10H32V7C32 5.34375 30.4643 4 28.5714 4Z" fill="white"/>
</svg>
