<svg width="32" height="32" viewBox="0 0 32 32" fill="none" xmlns="http://www.w3.org/2000/svg">
<path d="M16 0C7.1625 0 0 6.65 0 14.8571C0 18.4 1.3375 21.6429 3.5625 24.1929C2.78125 27.7929 0.16875 31 0.1375 31.0357C0 31.2 -0.0375 31.4429 0.04375 31.6571C0.125 31.8714 0.3 32 0.5 32C4.64375 32 7.75 29.7286 9.2875 28.3286C11.3313 29.2071 13.6 29.7143 16 29.7143C24.8375 29.7143 32 23.0643 32 14.8571C32 6.65 24.8375 0 16 0ZM8 17.1429C6.89375 17.1429 6 16.1214 6 14.8571C6 13.5929 6.89375 12.5714 8 12.5714C9.10625 12.5714 10 13.5929 10 14.8571C10 16.1214 9.10625 17.1429 8 17.1429ZM16 17.1429C14.8938 17.1429 14 16.1214 14 14.8571C14 13.5929 14.8938 12.5714 16 12.5714C17.1063 12.5714 18 13.5929 18 14.8571C18 16.1214 17.1063 17.1429 16 17.1429ZM24 17.1429C22.8937 17.1429 22 16.1214 22 14.8571C22 13.5929 22.8937 12.5714 24 12.5714C25.1063 12.5714 26 13.5929 26 14.8571C26 16.1214 25.1063 17.1429 24 17.1429Z" fill="white"/>
</svg>
