<svg width="32" height="32" viewBox="0 0 32 32" fill="none" xmlns="http://www.w3.org/2000/svg">
<path d="M29.3333 0H2.66667C1.19444 0 0 1.53571 0 3.42857V28.5714C0 30.4643 1.19444 32 2.66667 32H29.3333C30.8056 32 32 30.4643 32 28.5714V3.42857C32 1.53571 30.8056 0 29.3333 0ZM9.77778 6.85714C11.7389 6.85714 13.3333 8.90714 13.3333 11.4286C13.3333 13.95 11.7389 16 9.77778 16C7.81667 16 6.22222 13.95 6.22222 11.4286C6.22222 8.90714 7.81667 6.85714 9.77778 6.85714ZM16 23.7714C16 24.5286 15.4444 25.1429 14.7556 25.1429H4.8C4.11111 25.1429 3.55556 24.5286 3.55556 23.7714V22.4C3.55556 20.1286 5.22778 18.2857 7.28889 18.2857H7.56667C8.25 18.65 8.99444 18.8571 9.77778 18.8571C10.5611 18.8571 11.3111 18.65 11.9889 18.2857H12.2667C14.3278 18.2857 16 20.1286 16 22.4V23.7714ZM28.4444 20C28.4444 20.3143 28.2444 20.5714 28 20.5714H20C19.7556 20.5714 19.5556 20.3143 19.5556 20V18.8571C19.5556 18.5429 19.7556 18.2857 20 18.2857H28C28.2444 18.2857 28.4444 18.5429 28.4444 18.8571V20ZM28.4444 15.4286C28.4444 15.7429 28.2444 16 28 16H20C19.7556 16 19.5556 15.7429 19.5556 15.4286V14.2857C19.5556 13.9714 19.7556 13.7143 20 13.7143H28C28.2444 13.7143 28.4444 13.9714 28.4444 14.2857V15.4286ZM28.4444 10.8571C28.4444 11.1714 28.2444 11.4286 28 11.4286H20C19.7556 11.4286 19.5556 11.1714 19.5556 10.8571V9.71429C19.5556 9.4 19.7556 9.14286 20 9.14286H28C28.2444 9.14286 28.4444 9.4 28.4444 9.71429V10.8571Z" fill="white"/>
</svg>
