<svg width="32" height="32" viewBox="0 0 32 32" fill="none" xmlns="http://www.w3.org/2000/svg">
<path d="M12.3333 10.6667H2.33325C1.04663 10.6667 0 9.62012 0 8.33325V2.33325C0 1.04663 1.04663 0 2.33325 0H12.3333C13.6201 0 14.6667 1.04663 14.6667 2.33325V8.33325C14.6667 9.62012 13.6201 10.6667 12.3333 10.6667ZM2.33325 2C2.14941 2 2 2.14941 2 2.33325V8.33325C2 8.51733 2.14941 8.66675 2.33325 8.66675H12.3333C12.5173 8.66675 12.6667 8.51733 12.6667 8.33325V2.33325C12.6667 2.14941 12.5173 2 12.3333 2H2.33325Z" fill="white"/>
<path d="M12.3333 32H2.33325C1.04663 32 0 30.9534 0 29.6667V15.6667C0 14.3799 1.04663 13.3333 2.33325 13.3333H12.3333C13.6201 13.3333 14.6667 14.3799 14.6667 15.6667V29.6667C14.6667 30.9534 13.6201 32 12.3333 32ZM2.33325 15.3333C2.14941 15.3333 2 15.4827 2 15.6667V29.6667C2 29.8506 2.14941 30 2.33325 30H12.3333C12.5173 30 12.6667 29.8506 12.6667 29.6667V15.6667C12.6667 15.4827 12.5173 15.3333 12.3333 15.3333H2.33325Z" fill="white"/>
<path d="M29.6665 32H19.6665C18.3796 32 17.333 30.9534 17.333 29.6667V23.6667C17.333 22.3799 18.3796 21.3333 19.6665 21.3333H29.6665C30.9531 21.3333 31.9998 22.3799 31.9998 23.6667V29.6667C31.9998 30.9534 30.9531 32 29.6665 32ZM19.6665 23.3333C19.4824 23.3333 19.333 23.4827 19.333 23.6667V29.6667C19.333 29.8506 19.4824 30 19.6665 30H29.6665C29.8503 30 29.9998 29.8506 29.9998 29.6667V23.6667C29.9998 23.4827 29.8503 23.3333 29.6665 23.3333H19.6665Z" fill="white"/>
<path d="M29.6665 18.6667H19.6665C18.3796 18.6667 17.333 17.6201 17.333 16.3333V2.33325C17.333 1.04663 18.3796 0 19.6665 0H29.6665C30.9531 0 31.9998 1.04663 31.9998 2.33325V16.3333C31.9998 17.6201 30.9531 18.6667 29.6665 18.6667ZM19.6665 2C19.4824 2 19.333 2.14941 19.333 2.33325V16.3333C19.333 16.5173 19.4824 16.6667 19.6665 16.6667H29.6665C29.8503 16.6667 29.9998 16.5173 29.9998 16.3333V2.33325C29.9998 2.14941 29.8503 2 29.6665 2H19.6665Z" fill="white"/>
<rect x="19" y="1" width="11" height="16" fill="white"/>
<rect x="2" y="1" width="11" height="8" fill="white"/>
<rect x="1" y="14" width="12" height="17" fill="white"/>
<rect x="18" y="23" width="12" height="8" fill="white"/>
</svg>
