<svg width="32" height="32" viewBox="0 0 32 32" fill="none" xmlns="http://www.w3.org/2000/svg">
<path d="M32 16C32 24.8385 24.8359 32 16 32C7.16406 32 0 24.8385 0 16C0 7.16664 7.16406 0 16 0C24.8359 0 32 7.16664 32 16ZM16.4294 5.29032C12.9134 5.29032 10.671 6.77142 8.91006 9.40374C8.68194 9.74477 8.75826 10.2047 9.08523 10.4526L11.3239 12.1501C11.6597 12.4047 12.1381 12.3441 12.399 12.0132C13.5515 10.5514 14.3418 9.70368 16.096 9.70368C17.414 9.70368 19.0443 10.5519 19.0443 11.83C19.0443 12.7962 18.2466 13.2924 16.9453 14.022C15.4276 14.8728 13.4194 15.9317 13.4194 18.5806V18.8387C13.4194 19.2663 13.766 19.6129 14.1935 19.6129H17.8065C18.234 19.6129 18.5806 19.2663 18.5806 18.8387V18.7527C18.5806 16.9165 23.9475 16.84 23.9475 11.871C23.9475 8.1289 20.0659 5.29032 16.4294 5.29032ZM16 21.2903C14.3635 21.2903 13.0323 22.6216 13.0323 24.2581C13.0323 25.8945 14.3635 27.2258 16 27.2258C17.6365 27.2258 18.9677 25.8945 18.9677 24.2581C18.9677 22.6216 17.6365 21.2903 16 21.2903Z" fill="white"/>
</svg>
