<svg width="34" height="25" viewBox="0 0 34 25" fill="none" xmlns="http://www.w3.org/2000/svg">
<path d="M0.470556 11.3941L11.8045 0.458422C12.8164 -0.517979 14.5705 0.165503 14.5705 1.56501L14.5705 7.81397L23.7455 7.81397C24.6428 7.81397 25.3647 8.51047 25.3647 9.37621L25.3647 15.6252C25.3647 16.4909 24.6428 17.1874 23.7455 17.1874L14.5705 17.1874L14.5705 23.4364C14.5705 24.8294 12.8232 25.5194 11.8045 24.543L0.470555 13.6073C-0.156855 12.9954 -0.156855 12.006 0.470556 11.3941ZM21.047 0.783891L21.047 3.38762C21.047 3.81724 21.4113 4.16874 21.8565 4.16874L27.5235 4.16874C28.7176 4.16874 29.6823 5.09958 29.6823 6.25173L29.6823 18.7497C29.6823 19.9018 28.7176 20.8326 27.5235 20.8326L21.8565 20.8326C21.4113 20.8326 21.047 21.1841 21.047 21.6138L21.047 24.2175C21.047 24.6471 21.4113 24.9986 21.8565 24.9986L27.5235 24.9986C31.0991 24.9986 34 22.1996 34 18.7497L34 6.25173C34 2.80178 31.0991 0.00277112 27.5235 0.00277081L21.8565 0.00277032C21.4113 0.00277028 21.047 0.354274 21.047 0.783891Z" fill="white"/>
</svg>
