<svg width="32" height="32" viewBox="0 0 32 32" fill="none" xmlns="http://www.w3.org/2000/svg">
<path d="M31.57 1.19336C31.4957 0.847656 31.1539 0.505859 30.8071 0.431641C28.7948 0 27.2192 0 25.6505 0C19.1985 0 15.3293 3.45019 12.4408 8H5.92736C4.90563 8.00098 3.70507 8.74219 3.24694 9.65527L0.157226 15.8311C0.0617432 16.0417 0.00833376 16.2689 0 16.5C0.000143666 16.8978 0.158275 17.2793 0.439627 17.5606C0.720979 17.8419 1.10252 18 1.50036 18H7.98851L6.58385 19.4043C5.87353 20.1144 5.7716 21.4204 6.58385 22.2324L9.76536 25.4141C10.4626 26.1133 11.7751 26.2363 12.5952 25.4141L13.9999 24.0098V30.5C14 30.8978 14.1581 31.2793 14.4395 31.5606C14.7208 31.8419 15.1024 32 15.5002 32C15.7314 31.9914 15.9586 31.938 16.1694 31.8428L22.3399 28.7559C23.2542 28.2998 23.9967 27.0996 23.9967 26.0771V19.5498C28.534 16.6553 31.9988 12.7744 31.9988 6.35644C32.0047 4.78125 32.0047 3.20605 31.57 1.19336ZM24.0025 10.5C23.5081 10.4999 23.0248 10.3532 22.6138 10.0784C22.2027 9.8036 21.8824 9.41312 21.6933 8.95629C21.5041 8.49946 21.4547 7.99682 21.5512 7.5119C21.6478 7.02699 21.8859 6.58159 22.2356 6.23202C22.5852 5.88245 23.0307 5.64441 23.5156 5.54799C24.0006 5.45158 24.5032 5.50112 24.96 5.69036C25.4168 5.8796 25.8072 6.20003 26.0818 6.61114C26.3565 7.02225 26.5031 7.50557 26.5031 8C26.5027 8.66303 26.2391 9.29878 25.7703 9.76756C25.3014 10.2363 24.6656 10.4998 24.0025 10.5Z" fill="white"/>
</svg>
