<svg width="32" height="32" viewBox="0 0 32 32" fill="none" xmlns="http://www.w3.org/2000/svg">
<path d="M19.2 20H12.8C11.9165 20 11.2 20.8956 11.2 22V30C11.2 31.1044 11.9165 32 12.8 32H19.2C20.0835 32 20.8 31.1044 20.8 30V22C20.8 20.8956 20.0835 20 19.2 20ZM9.6 2C9.6 0.895625 8.8835 0 8 0H1.6C0.7165 0 0 0.895625 0 2V10C0 11.1044 0.7165 12 1.6 12H6.386L10.044 20.0025C10.599 18.8113 11.62 18 12.8 18H12.814L9.6 10.9694V8H20.8V4H9.6V2ZM30.4 0H24C23.1165 0 22.4 0.895625 22.4 2V10C22.4 11.1044 23.1165 12 24 12H30.4C31.2835 12 32 11.1044 32 10V2C32 0.895625 31.2835 0 30.4 0Z" fill="white"/>
</svg>
