<svg width="32" height="32" viewBox="0 0 32 32" fill="none" xmlns="http://www.w3.org/2000/svg">
<g clip-path="url(#clip0)">
<path d="M8.72559 2.21876C8.65591 2.14884 8.57312 2.09336 8.48196 2.05551C8.39079 2.01765 8.29305 1.99817 8.19434 1.99817C8.09563 1.99817 7.99789 2.01765 7.90673 2.05551C7.81556 2.09336 7.73277 2.14884 7.66309 2.21876L3.68309 6.17563L2.26434 4.79313C2.19466 4.72321 2.11187 4.66774 2.02071 4.62988C1.92954 4.59203 1.8318 4.57254 1.73309 4.57254C1.63438 4.57254 1.53664 4.59203 1.44548 4.62988C1.35431 4.66774 1.27152 4.72321 1.20184 4.79313L0.220591 5.77563C0.150671 5.84531 0.0951938 5.92811 0.0573398 6.01927C0.0194857 6.11043 0 6.20817 0 6.30688C0 6.40559 0.0194857 6.50333 0.0573398 6.5945C0.0951938 6.68566 0.150671 6.76846 0.220591 6.83813L3.19497 9.80063C3.34343 9.94176 3.54044 10.0205 3.74528 10.0205C3.95012 10.0205 4.14713 9.94176 4.29559 9.80063L5.26997 8.82438L9.78247 4.31251C9.92306 4.1718 10.0025 3.98133 10.0036 3.78242C10.0046 3.5835 9.92719 3.3922 9.78809 3.25001L8.72559 2.21876ZM8.72559 12.1681C8.65591 12.0982 8.57312 12.0427 8.48196 12.0049C8.39079 11.967 8.29305 11.9475 8.19434 11.9475C8.09563 11.9475 7.99789 11.967 7.90673 12.0049C7.81556 12.0427 7.73277 12.0982 7.66309 12.1681L3.68309 16.1506L2.26434 14.7694C2.19466 14.6995 2.11187 14.644 2.02071 14.6061C1.92954 14.5683 1.8318 14.5488 1.73309 14.5488C1.63438 14.5488 1.53664 14.5683 1.44548 14.6061C1.35431 14.644 1.27152 14.6995 1.20184 14.7694L0.220591 15.75C0.150671 15.8197 0.0951938 15.9025 0.0573398 15.9936C0.0194857 16.0848 0 16.1825 0 16.2813C0 16.38 0.0194857 16.4777 0.0573398 16.5689C0.0951938 16.66 0.150671 16.7428 0.220591 16.8125L3.18747 19.7813C3.33583 19.9223 3.53273 20.001 3.73747 20.001C3.9422 20.001 4.13911 19.9223 4.28747 19.7813L5.26872 18.8006L9.78122 14.2869C9.92128 14.1472 10.0005 13.9577 10.0015 13.7599C10.0026 13.5621 9.9254 13.3718 9.78684 13.2306L8.72559 12.1681ZM3.99997 23C2.34434 23 0.963091 24.3437 0.963091 26C0.963091 27.6562 2.34559 29 3.99997 29C4.79562 29 5.55868 28.6839 6.12129 28.1213C6.6839 27.5587 6.99997 26.7956 6.99997 26C6.99997 25.2043 6.6839 24.4413 6.12129 23.8787C5.55868 23.3161 4.79562 23 3.99997 23ZM31 24H13C12.7347 24 12.4804 24.1054 12.2929 24.2929C12.1053 24.4804 12 24.7348 12 25V27C12 27.2652 12.1053 27.5196 12.2929 27.7071C12.4804 27.8946 12.7347 28 13 28H31C31.2652 28 31.5195 27.8946 31.7071 27.7071C31.8946 27.5196 32 27.2652 32 27V25C32 24.7348 31.8946 24.4804 31.7071 24.2929C31.5195 24.1054 31.2652 24 31 24ZM31 4.00001H13C12.7347 4.00001 12.4804 4.10537 12.2929 4.2929C12.1053 4.48044 12 4.73479 12 5.00001V7.00001C12 7.26522 12.1053 7.51958 12.2929 7.70711C12.4804 7.89465 12.7347 8.00001 13 8.00001H31C31.2652 8.00001 31.5195 7.89465 31.7071 7.70711C31.8946 7.51958 32 7.26522 32 7.00001V5.00001C32 4.73479 31.8946 4.48044 31.7071 4.2929C31.5195 4.10537 31.2652 4.00001 31 4.00001ZM31 14H13C12.7347 14 12.4804 14.1054 12.2929 14.2929C12.1053 14.4804 12 14.7348 12 15V17C12 17.2652 12.1053 17.5196 12.2929 17.7071C12.4804 17.8946 12.7347 18 13 18H31C31.2652 18 31.5195 17.8946 31.7071 17.7071C31.8946 17.5196 32 17.2652 32 17V15C32 14.7348 31.8946 14.4804 31.7071 14.2929C31.5195 14.1054 31.2652 14 31 14Z" fill="white"/>
</g>
<defs>
<clipPath id="clip0">
<rect width="32" height="32" fill="white"/>
</clipPath>
</defs>
</svg>
